<mxfile host="app.diagrams.net" modified="2024-06-23T17:46:14.411Z" agent="Mozilla/5.0 (Windows NT 10.0; Win64; x64) AppleWebKit/537.36 (KHTML, like Gecko) Chrome/126.0.0.0 Safari/537.36" version="24.5.4" etag="-nz4v6ryPkoU0_g_kP1C" type="github">
  <diagram name="Page-1" id="M33qBf0cQMDsDy0pTplh">
    <mxGraphModel>
      <root>
        <mxCell id="0" />
        <mxCell id="1" parent="0" />
      </root>
    </mxGraphModel>
  </diagram>
</mxfile>
